<?xml version="1.0" encoding="UTF-8" standalone="no"?>
<svg
   xmlns:dc="http://purl.org/dc/elements/1.1/"
   xmlns:cc="http://creativecommons.org/ns#"
   xmlns:rdf="http://www.w3.org/1999/02/22-rdf-syntax-ns#"
   xmlns:svg="http://www.w3.org/2000/svg"
   xmlns="http://www.w3.org/2000/svg"
   id="svg8"
   version="1.1"
   viewBox="0 0 203.2 609.60002"
   height="24in"
   width="8in">
  <defs
     id="defs2" />
  <metadata
     id="metadata5">
    <rdf:RDF>
      <cc:Work
         rdf:about="">
        <dc:format>image/svg+xml</dc:format>
        <dc:type
           rdf:resource="http://purl.org/dc/dcmitype/StillImage" />
        <dc:title></dc:title>
      </cc:Work>
    </rdf:RDF>
  </metadata>
  <g
     transform="translate(0,312.60001)"
     id="layer1">
    <rect
       y="-312.41409"
       x="0.1859418"
       height="609.22815"
       width="202.82811"
       id="rect4553"
       style="fill:#ffffff;fill-opacity:1;stroke:#000000;stroke-width:0.3718836;stroke-linejoin:round;stroke-miterlimit:4;stroke-dasharray:none;stroke-opacity:1" />
    <g
       transform="matrix(2.4060209,0,0,2.4060209,-333.55681,-365.35622)"
       id="g4551">
      <path
         style="fill:#000000;fill-opacity:1;stroke:#000000;stroke-width:0.26499999;stroke-linecap:butt;stroke-linejoin:round;stroke-miterlimit:4;stroke-dasharray:none;stroke-opacity:1"
         d="m 160.23643,258.74705 v -3.0569 l 7.55037,-4.67722 1.80639,-6.43351 V 123.1782 l 4.03962,-12.44959 V 81.742557 l 2.97656,-17.599514 v -10.67783 l 2.31511,-3.449031 1.18117,-7.370535 V 29.510974 l 0.75596,-2.173364 V 269.7857 h -3.80339 c -0.10659,-1.48111 0.16077,-3.13028 0.72052,-4.8428 0.7087,-1.77177 1.87807,-4.15774 1.87807,-4.15774 h -7.29967 c 0,0 1.44104,2.03162 1.96075,4.06324 0.68676,2.50769 0.59059,5.03181 0.59059,5.03181 l -7.76902,-0.0668 c 0.0491,-1.56467 0.32918,-2.97675 0.70618,-4.66505 0.6548,-2.55903 2.03103,-4.38681 2.03103,-4.38681 h -4.90187 l 0.63783,-1.94894 -4.40764,-0.0655 z"
         id="path21" />
      <path
         style="fill:#000000;fill-opacity:1;stroke:#000000;stroke-width:0.26499999;stroke-linecap:butt;stroke-linejoin:round;stroke-miterlimit:4;stroke-dasharray:none;stroke-opacity:1"
         d="m 201.48679,258.74705 v -3.0569 l -7.55037,-4.67722 -1.80639,-6.43351 V 123.1782 l -4.03962,-12.44959 V 81.742553 l -2.97656,-17.599514 v -10.67783 l -2.31511,-3.449031 -1.18117,-7.370535 V 29.51097 l -0.75596,-2.173364 V 269.7857 h 3.80339 c 0.10659,-1.48111 -0.16077,-3.13028 -0.72052,-4.8428 -0.7087,-1.77177 -1.87807,-4.15774 -1.87807,-4.15774 h 7.29967 c 0,0 -1.44104,2.03162 -1.96075,4.06324 -0.68676,2.50769 -0.59059,5.03181 -0.59059,5.03181 l 7.76902,-0.0668 c -0.0491,-1.56467 -0.32918,-2.97675 -0.70618,-4.66505 -0.6548,-2.55903 -2.03103,-4.38681 -2.03103,-4.38681 h 4.90187 l -0.63783,-1.94894 4.40764,-0.0655 z"
         id="path21-2" />
    </g>
  </g>
</svg>
